# xmcd
#
# Track frame offsets: 
#        150
#        17965
#        34755
#        58608
#        78961
#        97071
#        115497
#        132225
#        153611
#        167060
#        198777
#        216165
#
# Disc length: 3165 seconds
#
# Revision: 4
# Processed by: cddbd v1.5.2PL0 Copyright (c) Steve Scherf et al.
# Submitted via: ExactAudioCopy v0.95b3
#
DISCID=a40c5b0c
DTITLE=Carey Bell - Deep Down
DYEAR=1900
DGENRE=Blues
TTITLE0=I Got To Go
TTITLE1=Let Me Stir In Your Pot
TTITLE2=When I Get Drunk
TTITLE3=Low Down Dirty Shame
TTITLE4=Borrow Your Love
TTITLE5=Lonesome Stranger
TTITLE6=After You
TTITLE7=I Got A Rich Man's Woman
TTITLE8=Jawbreaker
TTITLE9=Must I Holler?
TTITLE10=Tired Of Giving You My Love
TTITLE11=Easy
EXTD=
EXTT0=
EXTT1=
EXTT2=
EXTT3=
EXTT4=
EXTT5=
EXTT6=
EXTT7=
EXTT8=
EXTT9=
EXTT10=
EXTT11=
PLAYORDER=
